# xmcd
#
# Track frame offsets:
# 150
# 91045
# 167262
#
# Disc length: 2715 seconds
#
# Revision: 0
# Processed by: cddbd v1.5.2PL0 Copyright (c) Steve Scherf et al.
# Submitted via: Audion 3.0.2 (http://www.panic.com/audion/)
#
DISCID=100a9903
DTITLE=Gil Evans Lugano JF 1986 (2) - Gil Evans Lugano JF 1986 (2)
DYEAR=1900
DGENRE=
TTITLE0=1
TTITLE1=2
TTITLE2=3
EXTD=
EXTT0=
EXTT1=
EXTT2=
PLAYORDER=
